<svg xmlns="http://www.w3.org/2000/svg" width="16.496" height="10.349" viewBox="0 0 16.496 10.349">
  <g id="Group_866" data-name="Group 866" transform="translate(-294.315 -16.159)">
    <g id="Group_865" data-name="Group 865">
      <path id="Path_2714" data-name="Path 2714" d="M308.87,16.159h.97a.97.97,0,0,1,.971.97v8.409a.969.969,0,0,1-.971.97h-.97a.97.97,0,0,1-.97-.97V17.129A.97.97,0,0,1,308.87,16.159Zm-4.527,2.264h.97a.97.97,0,0,1,.971.97v6.145a.97.97,0,0,1-.971.97h-.97a.968.968,0,0,1-.97-.97V19.393A.969.969,0,0,1,304.343,18.423Zm-4.528,2.264h.971a.971.971,0,0,1,.97.97v3.881a.97.97,0,0,1-.97.97h-.971a.969.969,0,0,1-.97-.97V21.657A.97.97,0,0,1,299.815,20.687Zm-4.529,1.941h.97a.97.97,0,0,1,.97.97v1.94a.969.969,0,0,1-.97.97h-.97a.97.97,0,0,1-.971-.97V23.6A.971.971,0,0,1,295.286,22.628Z" fill="#fff"/>
    </g>
  </g>
</svg>
