<svg xmlns="http://www.w3.org/2000/svg" width="23.606" height="10.998" viewBox="0 0 23.606 10.998">
  <g id="Group_869" data-name="Group 869" transform="translate(-335.394 -15.835)">
    <g id="Group_868" data-name="Group 868">
      <g id="Group_867" data-name="Group 867">
        <path id="Path_2715" data-name="Path 2715" d="M354.154,16.806a1.618,1.618,0,0,1,1.616,1.617v5.822a1.618,1.618,0,0,1-1.616,1.617H337.98a1.618,1.618,0,0,1-1.616-1.617V18.423a1.618,1.618,0,0,1,1.616-1.617h16.174m0-.971H337.98a2.587,2.587,0,0,0-2.586,2.588v5.822a2.587,2.587,0,0,0,2.586,2.588h16.174a2.587,2.587,0,0,0,2.586-2.588V18.423a2.587,2.587,0,0,0-2.586-2.588Z" fill="#fff"/>
      </g>
      <path id="Path_2716" data-name="Path 2716" d="M357.711,19.393v3.882a2.106,2.106,0,0,0,0-3.882" fill="#fff"/>
      <path id="Rectangle_179" data-name="Rectangle 179" d="M1.295,0H16.172a1.294,1.294,0,0,1,1.294,1.294V5.822a1.295,1.295,0,0,1-1.295,1.295H1.295A1.295,1.295,0,0,1,0,5.822V1.295A1.295,1.295,0,0,1,1.295,0Z" transform="translate(337.334 17.776)" fill="#fff"/>
    </g>
  </g>
</svg>
