<svg xmlns="http://www.w3.org/2000/svg" width="14.82" height="10.64" viewBox="0 0 14.82 10.64">
  <g id="Group_864" data-name="Group 864" transform="translate(-315.689 -15.833)">
    <g id="Group_863" data-name="Group 863">
      <path id="Path_2713" data-name="Path 2713" d="M325.253,24.428a.306.306,0,0,0-.009-.444,3.32,3.32,0,0,0-4.288,0,.3.3,0,0,0-.1.219.305.305,0,0,0,.09.225l1.939,1.956a.3.3,0,0,0,.429,0Zm-2.153-2.7a4.77,4.77,0,0,1,3.2,1.232.3.3,0,0,0,.419,0l1.121-1.133a.311.311,0,0,0-.005-.445,6.946,6.946,0,0,0-9.463,0,.309.309,0,0,0-.1.221.312.312,0,0,0,.091.224l1.12,1.133a.3.3,0,0,0,.421,0A4.765,4.765,0,0,1,323.1,21.725Zm0-3.682a8.382,8.382,0,0,1,5.776,2.307.3.3,0,0,0,.421,0l1.121-1.132a.307.307,0,0,0,.091-.222.3.3,0,0,0-.094-.22,10.573,10.573,0,0,0-14.632,0,.308.308,0,0,0-.094.22.313.313,0,0,0,.091.222l1.123,1.132a.3.3,0,0,0,.42,0A8.38,8.38,0,0,1,323.1,18.043Z" fill="#fff"/>
    </g>
  </g>
</svg>
