<svg xmlns="http://www.w3.org/2000/svg" xmlns:xlink="http://www.w3.org/1999/xlink" width="441" height="478" viewBox="0 0 441 478">
  <defs>
    <clipPath id="clip-path">
      <path id="Subtraction_3" data-name="Subtraction 3" d="M7657,877h-67a16.991,16.991,0,0,1-16.884-15h-.217a87.437,87.437,0,0,0-172.8,0h-.219A16.988,16.988,0,0,1,7383,877h-67a16.991,16.991,0,0,1-16.885-15H7299V495h375V862h-.118A16.988,16.988,0,0,1,7657,877Z" transform="translate(-7299 -495)" fill="#4a4b4d" stroke="#707070" stroke-width="1" opacity="0.35"/>
    </clipPath>
  </defs>
  <g id="Organe_top_shape" data-name="Organe top shape" transform="translate(33 9)">
    <g id="Subtraction_2" data-name="Subtraction 2" transform="translate(-7299 -471)" fill="#4a4b4d" opacity="0.28">
      <path d="M 7657.00048828125 876.500732421875 L 7589.99951171875 876.500732421875 C 7581.62939453125 876.500732421875 7574.58447265625 870.24169921875 7573.61181640625 861.941650390625 L 7573.56005859375 861.4998168945312 L 7573.32373046875 861.4998168945312 C 7566.30029296875 818.59326171875 7529.85302734375 787.5001220703125 7486.49853515625 787.5001220703125 C 7443.14501953125 787.5001220703125 7406.69873046875 818.59326171875 7399.67578125 861.4998168945312 L 7399.4375 861.4998168945312 L 7399.3857421875 861.9417724609375 C 7398.4150390625 870.2417602539062 7391.37060546875 876.500732421875 7382.99951171875 876.500732421875 L 7316.0009765625 876.500732421875 C 7307.630859375 876.500732421875 7300.58544921875 870.24169921875 7299.61279296875 861.941650390625 L 7299.56103515625 861.4998168945312 L 7299.50048828125 861.4998168945312 L 7299.50048828125 495.500244140625 L 7673.50048828125 495.500244140625 L 7673.50048828125 792.999755859375 L 7673.50048828125 860.0006103515625 L 7673.50048828125 861.5001831054688 L 7673.43798828125 861.500244140625 L 7673.38623046875 861.9417724609375 C 7672.41552734375 870.2417602539062 7665.37109375 876.500732421875 7657.00048828125 876.500732421875 Z" stroke="none"/>
      <path d="M 7657.00048828125 876.000732421875 C 7665.11767578125 876.000732421875 7671.94873046875 869.9317626953125 7672.8896484375 861.8836669921875 L 7672.99267578125 861.0006103515625 L 7673.00048828125 861.0006103515625 L 7673.00048828125 496.000244140625 L 7300.00048828125 496.000244140625 L 7300.00048828125 860.9998168945312 L 7300.005859375 860.9998168945312 L 7300.109375 861.8834838867188 C 7301.05224609375 869.931640625 7307.88427734375 876.000732421875 7316.0009765625 876.000732421875 L 7382.99951171875 876.000732421875 C 7391.11669921875 876.000732421875 7397.94775390625 869.9317626953125 7398.88916015625 861.8836669921875 L 7398.99267578125 860.9998168945312 L 7399.251953125 860.9998168945312 C 7406.48291015625 818.0672607421875 7443.0400390625 787.0001220703125 7486.49853515625 787.0001220703125 C 7529.9580078125 787.0001220703125 7566.51611328125 818.0672607421875 7573.74755859375 860.9998168945312 L 7574.0048828125 860.9998168945312 L 7574.1083984375 861.8834838867188 C 7575.05126953125 869.931640625 7581.8828125 876.000732421875 7589.99951171875 876.000732421875 L 7657.00048828125 876.000732421875 M 7657.00048828125 877.000732421875 L 7589.99951171875 877.000732421875 C 7581.3759765625 877.000732421875 7574.1171875 870.5517578125 7573.115234375 861.9998168945312 L 7572.89794921875 861.9998168945312 C 7566.08251953125 819.12109375 7529.74658203125 788.0001220703125 7486.49853515625 788.0001220703125 C 7443.25146484375 788.0001220703125 7406.91650390625 819.1214599609375 7400.1015625 861.9998168945312 L 7399.88232421875 861.9998168945312 C 7398.88232421875 870.5513305664062 7391.6240234375 877.000732421875 7382.99951171875 877.000732421875 L 7316.0009765625 877.000732421875 C 7307.376953125 877.000732421875 7300.1181640625 870.5517578125 7299.1162109375 861.9998168945312 L 7299.00048828125 861.9998168945312 L 7299.00048828125 495.000244140625 L 7674.00048828125 495.000244140625 L 7674.00048828125 861.999755859375 L 7673.8828125 861.9998168945312 C 7672.8828125 870.5513305664062 7665.62451171875 877.000732421875 7657.00048828125 877.000732421875 Z" stroke="none" fill="#707070"/>
    </g>
    <g id="Shaped_subtraction" data-name="Shaped subtraction" transform="translate(-7299 -495)" fill="#fc6011">
      <path d="M 7486.49951171875 963.4998779296875 C 7480.5966796875 963.4998779296875 7474.697265625 962.9017944335938 7468.9658203125 961.7222900390625 C 7463.38037109375 960.5728149414062 7457.88623046875 958.8576049804688 7452.63623046875 956.6243286132812 C 7447.4814453125 954.4314575195312 7442.50927734375 951.7173461914062 7437.8583984375 948.5573120117188 C 7433.25146484375 945.4271240234375 7428.91943359375 941.8323364257812 7424.982421875 937.8727416992188 C 7421.044921875 933.9130859375 7417.470703125 929.5560913085938 7414.3583984375 924.9227294921875 C 7411.2158203125 920.2449951171875 7408.51708984375 915.2443237304688 7406.33642578125 910.0596313476562 C 7404.11572265625 904.7791137695312 7402.41015625 899.253173828125 7401.26708984375 893.63525390625 C 7400.09423828125 887.8705444335938 7399.49951171875 881.9371337890625 7399.49951171875 875.9998779296875 C 7399.49951171875 870.0626220703125 7400.09423828125 864.1292114257812 7401.26708984375 858.364501953125 C 7402.41015625 852.74658203125 7404.11572265625 847.2206420898438 7406.33642578125 841.9401245117188 C 7408.51708984375 836.7554321289062 7411.2158203125 831.7547607421875 7414.3583984375 827.0770263671875 C 7417.470703125 822.4436645507812 7421.044921875 818.086669921875 7424.982421875 814.1270141601562 C 7428.91943359375 810.1674194335938 7433.25146484375 806.5726318359375 7437.8583984375 803.4424438476562 C 7442.50927734375 800.2824096679688 7447.4814453125 797.5682983398438 7452.63623046875 795.37548828125 C 7457.88623046875 793.1421508789062 7463.38037109375 791.4269409179688 7468.9658203125 790.2774658203125 C 7474.697265625 789.0979614257812 7480.5966796875 788.4998779296875 7486.49951171875 788.4998779296875 C 7492.40234375 788.4998779296875 7498.3017578125 789.0979614257812 7504.033203125 790.2774658203125 C 7509.61865234375 791.4269409179688 7515.11279296875 793.1421508789062 7520.36279296875 795.37548828125 C 7525.517578125 797.5682983398438 7530.48974609375 800.2824096679688 7535.140625 803.4424438476562 C 7539.74755859375 806.5726318359375 7544.07958984375 810.1674194335938 7548.0166015625 814.1270141601562 C 7551.9541015625 818.086669921875 7555.5283203125 822.4436645507812 7558.640625 827.0770263671875 C 7561.783203125 831.7547607421875 7564.48193359375 836.7554321289062 7566.66259765625 841.9401245117188 C 7568.88330078125 847.2206420898438 7570.5888671875 852.74658203125 7571.73193359375 858.364501953125 C 7572.90478515625 864.1292114257812 7573.49951171875 870.0626220703125 7573.49951171875 875.9998779296875 C 7573.49951171875 881.9371337890625 7572.90478515625 887.8705444335938 7571.73193359375 893.63525390625 C 7570.5888671875 899.253173828125 7568.88330078125 904.7791137695312 7566.66259765625 910.0596313476562 C 7564.48193359375 915.2443237304688 7561.783203125 920.2449951171875 7558.640625 924.9227294921875 C 7555.5283203125 929.5560913085938 7551.9541015625 933.9130859375 7548.0166015625 937.8727416992188 C 7544.07958984375 941.8323364257812 7539.74755859375 945.4271240234375 7535.140625 948.5573120117188 C 7530.48974609375 951.7173461914062 7525.517578125 954.4314575195312 7520.36279296875 956.6243286132812 C 7515.11279296875 958.8576049804688 7509.61865234375 960.5728149414062 7504.033203125 961.7222900390625 C 7498.3017578125 962.9017944335938 7492.40234375 963.4998779296875 7486.49951171875 963.4998779296875 Z" stroke="none"/>
      <path d="M 7486.49951171875 788.9998779296875 C 7480.63037109375 788.9998779296875 7474.76513671875 789.594482421875 7469.06689453125 790.7672119140625 C 7463.513671875 791.9100341796875 7458.0517578125 793.615234375 7452.83203125 795.8355712890625 C 7447.70703125 798.0156860351562 7442.763671875 800.7141723632812 7438.1396484375 803.8560180664062 C 7433.55908203125 806.96826171875 7429.25146484375 810.5425415039062 7425.3369140625 814.4795532226562 C 7421.42236328125 818.4166870117188 7417.8681640625 822.7489013671875 7414.7734375 827.3558349609375 C 7411.64892578125 832.0068969726562 7408.96533203125 836.9789428710938 7406.79736328125 842.1339721679688 C 7404.58935546875 847.3842163085938 7402.8935546875 852.8784790039062 7401.75732421875 858.4641723632812 C 7400.5908203125 864.1961669921875 7399.99951171875 870.0960083007812 7399.99951171875 875.9998779296875 C 7399.99951171875 881.9037475585938 7400.5908203125 887.8035888671875 7401.75732421875 893.5355834960938 C 7402.8935546875 899.1212768554688 7404.58935546875 904.6155395507812 7406.79736328125 909.8657836914062 C 7408.96533203125 915.0208129882812 7411.64892578125 919.9928588867188 7414.7734375 924.6439208984375 C 7417.8681640625 929.2508544921875 7421.42236328125 933.5830688476562 7425.3369140625 937.5202026367188 C 7429.25146484375 941.4572143554688 7433.55908203125 945.031494140625 7438.1396484375 948.1437377929688 C 7442.763671875 951.2855834960938 7447.70703125 953.9840698242188 7452.83203125 956.1641845703125 C 7458.0517578125 958.384521484375 7463.513671875 960.0897216796875 7469.06689453125 961.2325439453125 C 7474.76513671875 962.4052734375 7480.63037109375 962.9998779296875 7486.49951171875 962.9998779296875 C 7492.36865234375 962.9998779296875 7498.23388671875 962.4052734375 7503.93212890625 961.2325439453125 C 7509.4853515625 960.0897216796875 7514.947265625 958.384521484375 7520.1669921875 956.1641845703125 C 7525.2919921875 953.9840698242188 7530.2353515625 951.2855834960938 7534.859375 948.1437377929688 C 7539.43994140625 945.031494140625 7543.74755859375 941.4572143554688 7547.662109375 937.5202026367188 C 7551.57666015625 933.5830688476562 7555.130859375 929.2508544921875 7558.2255859375 924.6439208984375 C 7561.35009765625 919.9928588867188 7564.03369140625 915.0208129882812 7566.20166015625 909.8657836914062 C 7568.40966796875 904.6155395507812 7570.10546875 899.1212768554688 7571.24169921875 893.5355834960938 C 7572.408203125 887.8035888671875 7572.99951171875 881.9037475585938 7572.99951171875 875.9998779296875 C 7572.99951171875 870.0960083007812 7572.408203125 864.1961669921875 7571.24169921875 858.4641723632812 C 7570.10546875 852.8784790039062 7568.40966796875 847.3842163085938 7566.20166015625 842.1339721679688 C 7564.03369140625 836.9789428710938 7561.35009765625 832.0068969726562 7558.2255859375 827.3558349609375 C 7555.130859375 822.7489013671875 7551.57666015625 818.4166870117188 7547.662109375 814.4795532226562 C 7543.74755859375 810.5425415039062 7539.43994140625 806.96826171875 7534.859375 803.8560180664062 C 7530.2353515625 800.7141723632812 7525.2919921875 798.0156860351562 7520.1669921875 795.8355712890625 C 7514.947265625 793.615234375 7509.4853515625 791.9100341796875 7503.93212890625 790.7672119140625 C 7498.23388671875 789.594482421875 7492.36865234375 788.9998779296875 7486.49951171875 788.9998779296875 M 7486.49951171875 787.9998779296875 C 7534.82421875 787.9998779296875 7573.99951171875 827.3988037109375 7573.99951171875 875.9998779296875 C 7573.99951171875 924.6009521484375 7534.82421875 963.9998779296875 7486.49951171875 963.9998779296875 C 7438.1748046875 963.9998779296875 7398.99951171875 924.6009521484375 7398.99951171875 875.9998779296875 C 7398.99951171875 827.3988037109375 7438.1748046875 787.9998779296875 7486.49951171875 787.9998779296875 Z" stroke="none" fill="#707070"/>
    </g>
    <g id="Background_objects" data-name="Background objects" transform="translate(0 0)" clip-path="url(#clip-path)">
      <g id="background_objects-2" data-name="background objects">
        <g id="Ellipse_3" data-name="Ellipse 3" transform="translate(-61 -55)" fill="#fff" stroke="#707070" stroke-width="1" opacity="0.14">
          <circle cx="89" cy="89" r="89" stroke="none"/>
          <circle cx="89" cy="89" r="88.5" fill="none"/>
        </g>
        <g id="Ellipse_5" data-name="Ellipse 5" transform="translate(166 -159)" fill="#fff" stroke="#707070" stroke-width="1" opacity="0.14">
          <circle cx="144.5" cy="144.5" r="144.5" stroke="none"/>
          <circle cx="144.5" cy="144.5" r="144" fill="none"/>
        </g>
        <g id="Ellipse_4" data-name="Ellipse 4" transform="translate(21 77)" fill="#fff" stroke="#707070" stroke-width="1" opacity="0.14">
          <circle cx="52.5" cy="52.5" r="52.5" stroke="none"/>
          <circle cx="52.5" cy="52.5" r="52" fill="none"/>
        </g>
        <g id="Ellipse_6" data-name="Ellipse 6" transform="translate(151 118)" fill="#fff" stroke="#707070" stroke-width="1" opacity="0.21">
          <circle cx="9" cy="9" r="9" stroke="none"/>
          <circle cx="9" cy="9" r="8.5" fill="none"/>
        </g>
        <g id="Ellipse_8" data-name="Ellipse 8" transform="translate(153 219)" fill="#fff" stroke="#707070" stroke-width="1" opacity="0.21">
          <circle cx="6.5" cy="6.5" r="6.5" stroke="none"/>
          <circle cx="6.5" cy="6.5" r="6" fill="none"/>
        </g>
        <g id="Ellipse_9" data-name="Ellipse 9" transform="translate(361 328)" fill="#fff" stroke="#707070" stroke-width="1" opacity="0.21">
          <circle cx="10.5" cy="10.5" r="10.5" stroke="none"/>
          <circle cx="10.5" cy="10.5" r="10" fill="none"/>
        </g>
        <g id="Ellipse_7" data-name="Ellipse 7" transform="translate(224 130)" fill="#fff" stroke="#707070" stroke-width="1" opacity="0.21">
          <circle cx="14.5" cy="14.5" r="14.5" stroke="none"/>
          <circle cx="14.5" cy="14.5" r="14" fill="none"/>
        </g>
        <g id="Ellipse_2" data-name="Ellipse 2" transform="translate(-88 219)" fill="#fff" stroke="#707070" stroke-width="1" opacity="0.14">
          <circle cx="116" cy="116" r="116" stroke="none"/>
          <circle cx="116" cy="116" r="115.5" fill="none"/>
        </g>
        <g id="Group_911" data-name="Group 911" transform="translate(213.514 114.176)" opacity="0.18">
          <path id="Path_2987" data-name="Path 2987" d="M210.606,142c0,4.172-3.712,7.577-8.241,7.577H18.727c-4.529,0-8.241-3.405-8.241-7.577,0-4.155,3.712-7.543,8.241-7.543H202.365C206.894,134.453,210.606,137.841,210.606,142ZM120.158,46.985a9.615,9.615,0,0,0-19.207-.051,76.628,76.628,0,0,1,19.207.051Zm74.817,80.777H26.117a84.691,84.691,0,0,1,168.858,0ZM100.883,57.15S53.548,67.468,39.415,119.878h17.9S67.22,76.169,100.883,57.15Z" transform="translate(0 0)" fill="#fff" stroke="#707070" stroke-width="1"/>
        </g>
      </g>
    </g>
  </g>
</svg>
