<svg xmlns="http://www.w3.org/2000/svg" width="103.106" height="105.098" viewBox="0 0 103.106 105.098">
  <g id="Group_873" data-name="Group 873" transform="translate(0)">
    <path id="Path_2736" data-name="Path 2736" d="M782.17,943.052a4.763,4.763,0,1,0-4.763,4.763A4.763,4.763,0,0,0,782.17,943.052Zm-6.3.868a2.183,2.183,0,1,1,2.183-2.183A2.183,2.183,0,0,1,775.871,943.921Z" transform="translate(-740.583 -897.48)" fill="#4a4b4d"/>
    <path id="Path_2737" data-name="Path 2737" d="M826.08,938.289a4.763,4.763,0,1,0,4.763,4.763A4.763,4.763,0,0,0,826.08,938.289Zm-1.536,5.632a2.183,2.183,0,1,1,2.183-2.183A2.183,2.183,0,0,1,824.544,943.921Z" transform="translate(-759.798 -897.48)" fill="#4a4b4d"/>
    <path id="Path_2738" data-name="Path 2738" d="M807.184,983.615c0-3.707-3.005-9.1-6.712-9.1s-6.712,5.394-6.712,9.1,3,3.855,6.712,3.855S807.184,987.322,807.184,983.615Z" transform="translate(-748.919 -911.781)" fill="#4a4b4d"/>
    <path id="Path_2739" data-name="Path 2739" d="M793.826,1012.62c11.079,0,20.06-4.757,20.06-10.626,0-2.259-1.334-4.352-3.6-6.073A6.438,6.438,0,0,1,811.6,999.7c0,5.868-8.981,10.625-20.061,10.625-6.814,0-12.831-1.8-16.457-4.552C777.959,1009.777,785.264,1012.62,793.826,1012.62Z" transform="translate(-741.544 -920.232)" fill="#4a4b4d"/>
    <path id="Path_2740" data-name="Path 2740" d="M747.241,939.659c.4,3.833,1.7,6.771,3.394,7.345a24.413,24.413,0,0,0,6.779,1,18.464,18.464,0,0,1-.824-2.263c-1.7-5.86-.314-11.748,3.124-15.413-1.477-.134-2.969-.209-4.423-.209a13.393,13.393,0,0,0-5.208.632,3.762,3.762,0,0,0-1.257,1.126,7.016,7.016,0,0,1,1.862,1.032c-.041.074-.087.144-.132.219A60.942,60.942,0,0,0,747.241,939.659Z" transform="translate(-730.554 -894.255)" fill="#4a4b4d"/>
    <path id="Path_2741" data-name="Path 2741" d="M844.817,945.411a18.278,18.278,0,0,1-.94,2.6A24.852,24.852,0,0,0,850.9,947c1.688-.574,2.99-3.5,3.392-7.332a61.213,61.213,0,0,0-3.467-6.714,7.97,7.97,0,0,1,1.885-1.082,3.768,3.768,0,0,0-1.258-1.128,13.4,13.4,0,0,0-5.208-.631c-1.468,0-2.973.077-4.462.213C845.067,933.971,846.4,939.691,844.817,945.411Z" transform="translate(-767.879 -894.255)" fill="#4a4b4d"/>
    <path id="Path_2742" data-name="Path 2742" d="M829.115,937.457a21.687,21.687,0,0,0-5.094-8.22,6.245,6.245,0,0,1-.2.7,4.48,4.48,0,0,1-2.247,2.362c-.688.394-.78.47-.85.9l-.081.5a13.445,13.445,0,0,1,3.538,5.478c2.04,5.842,0,11.873-4.563,13.464a6.877,6.877,0,0,1-1.678.359c-.016-.083-.028-.165-.045-.252-.319-1.706-.721-3.414-1.2-5.112a8.4,8.4,0,0,1-4.36,3.859,35.119,35.119,0,0,1-10.848,1.5c-.634,0-1.266-.014-1.893-.038-.055.053-.105.11-.16.162,6.1,4.242,9.947,10.359,9.993,17.186.082,12.936-13.5,23.51-30.349,23.622s-30.567-10.29-30.654-23.226c-.041-6.827,3.723-12.993,9.766-17.313-.146-.135-.285-.281-.427-.422-.53.018-1.063.03-1.6.03a35.117,35.117,0,0,1-10.847-1.5,8.376,8.376,0,0,1-4.333-3.811c-.509,1.851-.933,3.714-1.256,5.575a52.449,52.449,0,0,0-.738,6.575c-.05.895-.066,1.785-.062,2.667.148,22.982,17.2,36.647,40.181,36.5s39.851-14.036,39.7-37.019c0-.8-.033-1.6-.082-2.411a11.106,11.106,0,0,0,3.1-.606C829.11,956.424,832.375,946.794,829.115,937.457Z" transform="translate(-727.273 -893.907)" fill="#4a4b4d"/>
    <path id="Path_2743" data-name="Path 2743" d="M780.786,903.91a12.963,12.963,0,0,1,1.341.567,37.25,37.25,0,0,0,13.613.114,12.988,12.988,0,0,1,3.5-1.318,59.468,59.468,0,0,1,13.787-3.719c-.151-.153-.3-.31-.451-.461-2.067-2.047-10.116-8.344-10.985-9.1-3.011-2.618-11.1-9.227-12.993-19.132a11.913,11.913,0,0,0-2.5,7.2,16.69,16.69,0,0,0,1.887,7.918c-2.182-1.289-6-7.755-6.8-12.375-2.758,4.014-1.924,12.5-.749,14.865-3.214-1.333-5.814-7.087-5.869-9.477-1.614,2.025-3.518,8.755-.562,13.8a40.391,40.391,0,0,0-8.538,6.747A56.759,56.759,0,0,1,780.786,903.91Z" transform="translate(-737.75 -870.861)" fill="#4a4b4d"/>
    <path id="Path_2744" data-name="Path 2744" d="M732.139,953.006a6.831,6.831,0,0,1-1.707-.362c-4.563-1.591-6.6-7.622-4.563-13.464a13.438,13.438,0,0,1,3.538-5.478l-.08-.5c-.07-.431-.162-.506-.85-.9a4.479,4.479,0,0,1-2.247-2.362,6.134,6.134,0,0,1-.2-.7,21.671,21.671,0,0,0-5.094,8.22c-3.261,9.337,0,18.967,7.288,21.511a11.067,11.067,0,0,0,3.137.61A52.541,52.541,0,0,1,732.139,953.006Z" transform="translate(-719.67 -893.907)" fill="#4a4b4d"/>
  </g>
</svg>
